<svg xmlns="http://www.w3.org/2000/svg" xmlns:svg="http://www.w3.org/2000/svg" xmlns:xlink="http://www.w3.org/1999/xlink" id="Layer_1" width="11.955" height="13.418" x="0" y="0" enable-background="new 0 0 11.955 13.418" version="1.1" viewBox="0 0 11.955 13.418" xml:space="preserve"><metadata id="metadata22"/><defs id="defs20"><linearGradient id="linearGradient4202"><stop style="stop-color:red;stop-opacity:1" id="stop4204" offset="0"/><stop style="stop-color:red;stop-opacity:0" id="stop4206" offset="1"/></linearGradient><linearGradient id="linearGradient4194"><stop style="stop-color:#000;stop-opacity:1" id="stop4196" offset="0"/><stop style="stop-color:#000;stop-opacity:0" id="stop4198" offset="1"/></linearGradient><linearGradient id="linearGradient4200" x1="0" x2="11.955" y1="6.709" y2="6.709" gradientUnits="userSpaceOnUse" xlink:href="#linearGradient4194"/><linearGradient id="linearGradient4208" x1="12.053" x2=".584" y1="13.247" y2="-.057" gradientUnits="userSpaceOnUse" xlink:href="#linearGradient4202"/></defs><g id="g3" style="fill:url(#linearGradient4208);fill-opacity:1;stroke:none;stroke-opacity:1"><g id="g5" style="fill:url(#linearGradient4208);fill-opacity:1;stroke:none;stroke-opacity:1"><polygon id="polygon7" fill="#86A362" points=".344 9.62 5.978 .477 11.612 9.62 5.978 13.123" style="fill:url(#linearGradient4208);fill-opacity:1;stroke:none;stroke-opacity:1"/><path id="path9" fill="#17191B" d="M5.978,0.953l5.291,8.586l-5.291,3.29l-5.291-3.29L5.978,0.953 M5.978,0L5.552,0.691L0.261,9.276L0,9.701 l0.423,0.263l5.291,3.29l0.264,0.164l0.264-0.164l5.29-3.29l0.423-0.263l-0.261-0.425L6.404,0.691L5.978,0L5.978,0z" style="fill:url(#linearGradient4208);fill-opacity:1;stroke:none;stroke-opacity:1"/></g><linearGradient id="SVGID_1_" x1="8.623" x2="8.623" y1="-84.284" y2="-96.16" gradientTransform="matrix(1 0 0 1 -4.882813e-004 97.1128)" gradientUnits="userSpaceOnUse" style="fill-opacity:1;fill:url(#linearGradient4208);stroke:url(#linearGradient4200)"><stop style="stop-color:#274415;stop-opacity:0;fill-opacity:1;fill:url(#linearGradient4208);stroke:url(#linearGradient4200)" id="stop12" offset="0"/><stop style="stop-color:#274415;fill-opacity:1;fill:url(#linearGradient4208);stroke:url(#linearGradient4200)" id="stop14" offset="1"/></linearGradient><polygon id="polygon16" fill="url(#SVGID_1_)" points="5.978 .953 5.978 12.829 11.269 9.539" style="fill:url(#linearGradient4208);fill-opacity:1;stroke:none;stroke-opacity:1"/></g></svg>