<svg xmlns="http://www.w3.org/2000/svg" xmlns:xlink="http://www.w3.org/1999/xlink" id="Layer_1" width="89.292" height="89.291" x="0" y="0" enable-background="new 0 0 89.292 89.291" version="1.1" viewBox="0 0 89.292 89.291" xml:space="preserve"><g><line x1="33.092" x2="33.553" y1="1.521" y2="3.246" fill="none" stroke="#FFF" stroke-miterlimit="10" stroke-width=".75"/><line x1="22.324" x2="23.216" y1="5.981" y2="7.528" fill="none" stroke="#FFF" stroke-miterlimit="10" stroke-width=".75"/><line x1="13.078" x2="14.34" y1="13.076" y2="14.339" fill="none" stroke="#FFF" stroke-miterlimit="10" stroke-width=".75"/><line x1="5.982" x2="7.528" y1="22.322" y2="23.216" fill="none" stroke="#FFF" stroke-miterlimit="10" stroke-width=".75"/><line x1="1.522" x2="3.246" y1="33.089" y2="33.552" fill="none" stroke="#FFF" stroke-miterlimit="10" stroke-width=".75"/><line x1="1.522" x2="3.247" y1="56.199" y2="55.739" fill="none" stroke="#FFF" stroke-miterlimit="10" stroke-width=".75"/><line x1="5.981" x2="7.528" y1="66.966" y2="66.076" fill="none" stroke="#FFF" stroke-miterlimit="10" stroke-width=".75"/><line x1="13.076" x2="14.34" y1="76.213" y2="74.952" fill="none" stroke="#FFF" stroke-miterlimit="10" stroke-width=".75"/><line x1="22.322" x2="23.217" y1="83.308" y2="81.762" fill="none" stroke="#FFF" stroke-miterlimit="10" stroke-width=".75"/><line x1="33.09" x2="33.554" y1="87.769" y2="86.044" fill="none" stroke="#FFF" stroke-miterlimit="10" stroke-width=".75"/><line x1="56.199" x2="55.739" y1="87.77" y2="86.043" fill="none" stroke="#FFF" stroke-miterlimit="10" stroke-width=".75"/><line x1="66.968" x2="66.076" y1="83.309" y2="81.762" fill="none" stroke="#FFF" stroke-miterlimit="10" stroke-width=".75"/><line x1="76.214" x2="74.952" y1="76.214" y2="74.951" fill="none" stroke="#FFF" stroke-miterlimit="10" stroke-width=".75"/><line x1="83.309" x2="81.764" y1="66.968" y2="66.075" fill="none" stroke="#FFF" stroke-miterlimit="10" stroke-width=".75"/><line x1="87.77" x2="86.045" y1="56.202" y2="55.738" fill="none" stroke="#FFF" stroke-miterlimit="10" stroke-width=".75"/><line x1="44.641" x2="44.651" y1="89.29" y2="83.99" fill="none" stroke="#FFF" stroke-miterlimit="10"/><line x1="44.649" x2="44.643" y1="0" y2="5.299" fill="none" stroke="#FFF" stroke-miterlimit="10"/><line x1="87.77" x2="86.045" y1="33.091" y2="33.551" fill="none" stroke="#FFF" stroke-miterlimit="10" stroke-width=".75"/><line x1="83.31" x2="81.763" y1="22.324" y2="23.214" fill="none" stroke="#FFF" stroke-miterlimit="10" stroke-width=".75"/><line x1="76.215" x2="74.951" y1="13.078" y2="14.337" fill="none" stroke="#FFF" stroke-miterlimit="10" stroke-width=".75"/><line x1="66.969" x2="66.074" y1="5.982" y2="7.527" fill="none" stroke="#FFF" stroke-miterlimit="10" stroke-width=".75"/><line x1="56.202" x2="55.737" y1="1.522" y2="3.246" fill="none" stroke="#FFF" stroke-miterlimit="10" stroke-width=".75"/><line x1=".001" x2="5.301" y1="44.639" y2="44.65" fill="none" stroke="#FFF" stroke-miterlimit="10"/><line x1="89.291" x2="83.991" y1="44.648" y2="44.642" fill="none" stroke="#FFF" stroke-miterlimit="10"/></g></svg>