<svg xmlns="http://www.w3.org/2000/svg" xmlns:xlink="http://www.w3.org/1999/xlink" id="Layer_1" width="95.088" height="95.089" x="0" y="0" enable-background="new 0 0 95.088 95.089" version="1.1" viewBox="0 0 95.088 95.089" xml:space="preserve"><g><circle cx="47.544" cy="47.544" r="47.544" fill="none"/><g><g><line x1="47.539" x2="47.549" y1="92.194" y2="86.895" fill="none" stroke="#17191B" stroke-miterlimit="10" stroke-width=".5"/><line x1="47.548" x2="47.541" y1="2.905" y2="8.204" fill="none" stroke="#17191B" stroke-miterlimit="10" stroke-width=".5"/></g><g><line x1="51.43" x2="50.979" y1="92.025" y2="86.744" fill="none" stroke="#17191B" stroke-miterlimit="10" stroke-width=".5"/><line x1="43.656" x2="44.112" y1="3.075" y2="8.354" fill="none" stroke="#17191B" stroke-miterlimit="10" stroke-width=".5"/></g><g><line x1="55.291" x2="54.381" y1="91.518" y2="86.296" fill="none" stroke="#17191B" stroke-miterlimit="10" stroke-width=".5"/><line x1="39.795" x2="40.709" y1="3.583" y2="8.802" fill="none" stroke="#17191B" stroke-miterlimit="10" stroke-width=".5"/></g><g><line x1="59.094" x2="57.732" y1="90.675" y2="85.553" fill="none" stroke="#17191B" stroke-miterlimit="10" stroke-width=".5"/><line x1="35.992" x2="37.358" y1="4.425" y2="9.545" fill="none" stroke="#17191B" stroke-miterlimit="10" stroke-width=".5"/></g><g><line x1="62.809" x2="61.006" y1="89.504" y2="84.521" fill="none" stroke="#17191B" stroke-miterlimit="10" stroke-width=".5"/><line x1="32.278" x2="34.084" y1="5.596" y2="10.578" fill="none" stroke="#17191B" stroke-miterlimit="10" stroke-width=".5"/></g><g><line x1="66.406" x2="64.177" y1="88.014" y2="83.207" fill="none" stroke="#17191B" stroke-miterlimit="10" stroke-width=".5"/><line x1="28.68" x2="30.913" y1="7.086" y2="11.892" fill="none" stroke="#17191B" stroke-miterlimit="10" stroke-width=".5"/></g><g><line x1="69.861" x2="67.221" y1="86.216" y2="81.622" fill="none" stroke="#17191B" stroke-miterlimit="10" stroke-width=".5"/><line x1="25.225" x2="27.869" y1="8.885" y2="13.477" fill="none" stroke="#17191B" stroke-miterlimit="10" stroke-width=".5"/></g><g><line x1="73.146" x2="70.115" y1="84.124" y2="79.777" fill="none" stroke="#17191B" stroke-miterlimit="10" stroke-width=".5"/><line x1="21.939" x2="24.975" y1="10.977" y2="15.321" fill="none" stroke="#17191B" stroke-miterlimit="10" stroke-width=".5"/></g><g><line x1="76.236" x2="72.839" y1="81.754" y2="77.688" fill="none" stroke="#17191B" stroke-miterlimit="10" stroke-width=".5"/><line x1="18.85" x2="22.251" y1="13.348" y2="17.411" fill="none" stroke="#17191B" stroke-miterlimit="10" stroke-width=".5"/></g><g><line x1="79.108" x2="75.369" y1="79.123" y2="75.368" fill="none" stroke="#17191B" stroke-miterlimit="10" stroke-width=".5"/><line x1="15.979" x2="19.721" y1="15.979" y2="19.73" fill="none" stroke="#17191B" stroke-miterlimit="10" stroke-width=".5"/></g><g><line x1="81.74" x2="77.688" y1="76.252" y2="72.837" fill="none" stroke="#17191B" stroke-miterlimit="10" stroke-width=".5"/><line x1="13.347" x2="17.401" y1="18.85" y2="22.261" fill="none" stroke="#17191B" stroke-miterlimit="10" stroke-width=".5"/></g><g><line x1="84.111" x2="79.777" y1="73.163" y2="70.114" fill="none" stroke="#17191B" stroke-miterlimit="10" stroke-width=".5"/><line x1="10.975" x2="15.313" y1="21.939" y2="24.984" fill="none" stroke="#17191B" stroke-miterlimit="10" stroke-width=".5"/></g><g><line x1="86.204" x2="81.621" y1="69.878" y2="67.219" fill="none" stroke="#17191B" stroke-miterlimit="10" stroke-width=".5"/><line x1="8.882" x2="13.468" y1="25.224" y2="27.879" fill="none" stroke="#17191B" stroke-miterlimit="10" stroke-width=".5"/></g><g><line x1="88.003" x2="83.205" y1="66.423" y2="64.174" fill="none" stroke="#17191B" stroke-miterlimit="10" stroke-width=".5"/><line x1="7.083" x2="11.883" y1="28.679" y2="30.924" fill="none" stroke="#17191B" stroke-miterlimit="10" stroke-width=".5"/></g><g><line x1="89.494" x2="84.519" y1="62.825" y2="61.003" fill="none" stroke="#17191B" stroke-miterlimit="10" stroke-width=".5"/><line x1="5.593" x2="10.57" y1="32.277" y2="34.095" fill="none" stroke="#17191B" stroke-miterlimit="10" stroke-width=".5"/></g><g><line x1="90.666" x2="85.551" y1="59.11" y2="57.729" fill="none" stroke="#17191B" stroke-miterlimit="10" stroke-width=".5"/><line x1="4.421" x2="9.538" y1="35.991" y2="37.369" fill="none" stroke="#17191B" stroke-miterlimit="10" stroke-width=".5"/></g><g><line x1="91.51" x2="86.293" y1="55.309" y2="54.378" fill="none" stroke="#17191B" stroke-miterlimit="10" stroke-width=".5"/><line x1="3.578" x2="8.795" y1="39.794" y2="40.72" fill="none" stroke="#17191B" stroke-miterlimit="10" stroke-width=".5"/></g><g><line x1="92.018" x2="86.74" y1="51.447" y2="50.974" fill="none" stroke="#17191B" stroke-miterlimit="10" stroke-width=".5"/><line x1="3.068" x2="8.348" y1="43.655" y2="44.124" fill="none" stroke="#17191B" stroke-miterlimit="10" stroke-width=".5"/></g><g><line x1="92.188" x2="86.89" y1="47.556" y2="47.545" fill="none" stroke="#17191B" stroke-miterlimit="10" stroke-width=".5"/><line x1="2.898" x2="8.198" y1="47.546" y2="47.553" fill="none" stroke="#17191B" stroke-miterlimit="10" stroke-width=".5"/></g><g><line x1="92.02" x2="86.739" y1="43.665" y2="44.116" fill="none" stroke="#17191B" stroke-miterlimit="10" stroke-width=".5"/><line x1="3.068" x2="8.348" y1="51.437" y2="50.981" fill="none" stroke="#17191B" stroke-miterlimit="10" stroke-width=".5"/></g><g><line x1="91.512" x2="86.291" y1="39.804" y2="40.713" fill="none" stroke="#17191B" stroke-miterlimit="10" stroke-width=".5"/><line x1="3.576" x2="8.796" y1="55.298" y2="54.386" fill="none" stroke="#17191B" stroke-miterlimit="10" stroke-width=".5"/></g><g><line x1="90.669" x2="85.547" y1="36.001" y2="37.362" fill="none" stroke="#17191B" stroke-miterlimit="10" stroke-width=".5"/><line x1="4.419" x2="9.539" y1="59.101" y2="57.736" fill="none" stroke="#17191B" stroke-miterlimit="10" stroke-width=".5"/></g><g><line x1="89.498" x2="84.515" y1="32.286" y2="34.088" fill="none" stroke="#17191B" stroke-miterlimit="10" stroke-width=".5"/><line x1="5.59" x2="10.572" y1="62.815" y2="61.01" fill="none" stroke="#17191B" stroke-miterlimit="10" stroke-width=".5"/></g><g><line x1="88.008" x2="83.201" y1="28.688" y2="30.917" fill="none" stroke="#17191B" stroke-miterlimit="10" stroke-width=".5"/><line x1="7.08" x2="11.886" y1="66.415" y2="64.181" fill="none" stroke="#17191B" stroke-miterlimit="10" stroke-width=".5"/></g><g><line x1="86.21" x2="81.615" y1="25.232" y2="27.873" fill="none" stroke="#17191B" stroke-miterlimit="10" stroke-width=".5"/><line x1="8.878" x2="13.471" y1="69.87" y2="67.226" fill="none" stroke="#17191B" stroke-miterlimit="10" stroke-width=".5"/></g><g><line x1="84.118" x2="79.771" y1="21.947" y2="24.979" fill="none" stroke="#17191B" stroke-miterlimit="10" stroke-width=".5"/><line x1="10.971" x2="15.315" y1="73.155" y2="70.12" fill="none" stroke="#17191B" stroke-miterlimit="10" stroke-width=".5"/></g><g><line x1="81.747" x2="77.682" y1="18.857" y2="22.256" fill="none" stroke="#17191B" stroke-miterlimit="10" stroke-width=".5"/><line x1="13.342" x2="17.405" y1="76.245" y2="72.843" fill="none" stroke="#17191B" stroke-miterlimit="10" stroke-width=".5"/></g><g><line x1="79.116" x2="75.361" y1="15.985" y2="19.726" fill="none" stroke="#17191B" stroke-miterlimit="10" stroke-width=".5"/><line x1="15.973" x2="19.725" y1="79.117" y2="75.374" fill="none" stroke="#17191B" stroke-miterlimit="10" stroke-width=".5"/></g><g><line x1="76.245" x2="72.831" y1="13.353" y2="17.407" fill="none" stroke="#17191B" stroke-miterlimit="10" stroke-width=".5"/><line x1="18.844" x2="22.255" y1="81.749" y2="77.692" fill="none" stroke="#17191B" stroke-miterlimit="10" stroke-width=".5"/></g><g><line x1="73.155" x2="70.107" y1="10.982" y2="15.318" fill="none" stroke="#17191B" stroke-miterlimit="10" stroke-width=".5"/><line x1="21.934" x2="24.979" y1="84.12" y2="79.782" fill="none" stroke="#17191B" stroke-miterlimit="10" stroke-width=".5"/></g><g><line x1="69.871" x2="67.213" y1="8.889" y2="13.474" fill="none" stroke="#17191B" stroke-miterlimit="10" stroke-width=".5"/><line x1="25.219" x2="27.873" y1="86.213" y2="81.626" fill="none" stroke="#17191B" stroke-miterlimit="10" stroke-width=".5"/></g><g><line x1="66.416" x2="64.168" y1="7.09" y2="11.89" fill="none" stroke="#17191B" stroke-miterlimit="10" stroke-width=".5"/><line x1="28.673" x2="30.918" y1="88.012" y2="83.211" fill="none" stroke="#17191B" stroke-miterlimit="10" stroke-width=".5"/></g><g><line x1="62.818" x2="60.996" y1="5.599" y2="10.577" fill="none" stroke="#17191B" stroke-miterlimit="10" stroke-width=".5"/><line x1="32.271" x2="34.09" y1="89.503" y2="84.524" fill="none" stroke="#17191B" stroke-miterlimit="10" stroke-width=".5"/></g><g><line x1="59.104" x2="57.723" y1="4.428" y2="9.545" fill="none" stroke="#17191B" stroke-miterlimit="10" stroke-width=".5"/><line x1="35.986" x2="37.363" y1="90.675" y2="85.557" fill="none" stroke="#17191B" stroke-miterlimit="10" stroke-width=".5"/></g><g><line x1="55.302" x2="54.371" y1="3.584" y2="8.802" fill="none" stroke="#17191B" stroke-miterlimit="10" stroke-width=".5"/><line x1="39.788" x2="40.715" y1="91.519" y2="86.3" fill="none" stroke="#17191B" stroke-miterlimit="10" stroke-width=".5"/></g><g><line x1="51.44" x2="50.969" y1="3.076" y2="8.354" fill="none" stroke="#17191B" stroke-miterlimit="10" stroke-width=".5"/><line x1="43.65" x2="44.117" y1="92.027" y2="86.748" fill="none" stroke="#17191B" stroke-miterlimit="10" stroke-width=".5"/></g></g><g><path fill="#17191B" d="M84.249,47.551l0.006-0.001l-27.092-4.637l0.004,0l16.335-21.322l-21.32,16.335l0.001,0.006l-4.639-27.094 v0.006l-0.001-0.006l-4.638,27.094l0.001-0.007l-21.32-16.334l16.334,21.32l-27.087,4.637h0.006l-0.006,0.001l27.092,4.637 l-0.004,0L21.585,73.509l21.321-16.334l-0.001-0.009l4.638,27.095v-0.006l0.001,0.006l4.637-27.092v0.004l21.322,16.336 L57.17,52.188l27.085-4.637H84.249z M81.286,47.551L48.252,47.55l4.828-4.829l28.211,4.829L81.286,47.551z M47.544,13.808 l-0.001,33.033l-4.829-4.827l4.829-28.211L47.544,13.808z M13.802,47.549l33.034,0.001l-4.828,4.829L13.797,47.55L13.802,47.549z M47.543,81.292l0.001-33.034l4.829,4.828l-4.829,28.211L47.543,81.292z"/></g><g><path fill="none" stroke="#17191B" stroke-miterlimit="10" d="M44.509,16.708c-6.899,0.673-13.615,3.645-18.889,8.918 c-5.274,5.273-8.246,11.989-8.918,18.89"/><path fill="none" stroke="#17191B" stroke-miterlimit="10" d="M78.386,44.516c-0.672-6.9-3.644-13.617-8.917-18.891 c-5.274-5.274-11.99-8.246-18.891-8.918"/><path fill="none" stroke="#17191B" stroke-miterlimit="10" d="M16.702,50.583c0.672,6.9,3.645,13.617,8.918,18.891 s11.989,8.245,18.889,8.918"/><path fill="none" stroke="#17191B" stroke-miterlimit="10" d="M50.578,78.393c6.9-0.673,13.616-3.645,18.891-8.919 c5.273-5.273,8.245-11.989,8.917-18.889"/></g></g></svg>